<?xml version="1.0" encoding="utf-8"?>
<!-- Generator: Adobe Illustrator 25.0.1, SVG Export Plug-In . SVG Version: 6.00 Build 0)  -->
<svg version="1.1" id="Layer_1" xmlns="http://www.w3.org/2000/svg" xmlns:xlink="http://www.w3.org/1999/xlink" x="0px" y="0px"
	 viewBox="0 0 322 72" style="enable-background:new 0 0 322 72;" xml:space="preserve">
<style type="text/css">
	.st0{fill:#1800C6;}
	.st1{fill:#0025FF;}
	.st2{fill:#000635;}
</style>
<path class="st0" d="M5.2,13.7c-2.7,1.6-3.9,4.5-3.9,7.6v29.4c0,3.2,1.2,6.1,3.9,7.6l18.6,10.5V3.2L5.2,13.7z"/>
<path class="st1" d="M55.2,54c0.6,0.4,0.8,1.3,0.2,1.8C53,58.2,47,64.1,44,66.6c-6.1,5.2-14.1,5.7-21,1.7l-17.8-10
	c8.8,4.7,15,2.7,17.6,0.6c4.1-3.2,12.9-11.6,15.3-13.9c0.4-0.3,0.9-0.4,1.4-0.2L55.2,54z M55.2,18.1c0.6-0.4,0.8-1.3,0.2-1.8
	C53,13.9,47,7.9,44,5.4c-6.1-5.2-14-5.8-21-1.8L5.2,13.7C14,9,20.2,11,22.8,13.1c4.1,3.2,12.9,11.6,15.3,13.9
	c0.4,0.3,0.9,0.4,1.4,0.2C39.5,27.2,55.2,18.1,55.2,18.1z"/>
<path class="st2" d="M99.9,39.7l6.6,1.5c-0.5,3.8-1.9,6.8-4.2,9c-2.2,2.2-5.2,3.3-8.8,3.3c-4.2,0-7.6-1.5-10.3-4.4
	c-2.6-2.9-4-7.3-4-13.2c0-5.2,1.4-9.2,4.2-12.2c2.8-2.9,6.1-4.4,10-4.4c3.4,0,6.2,1.1,8.6,3.2s3.7,4.9,4.1,8.5l-6.3,1
	c-0.3-2-0.9-3.6-2-4.9c-1-1.3-2.5-1.9-4.4-1.9c-2.2,0-4,0.9-5.5,2.8s-2.2,4.5-2.2,7.9c0,4,0.7,7,2.2,8.9c1.5,1.9,3.3,2.9,5.6,2.9
	C97.1,47.6,99.3,45,99.9,39.7L99.9,39.7z M111.3,52.8V18.5h6.1v11.8h0.1c0.5-0.8,1.3-1.5,2.5-2.2c1.2-0.6,2.3-0.9,3.6-0.9
	c2.7,0,4.8,0.8,6.3,2.4c1.6,1.6,2.3,3.8,2.3,6.6v16.5h-6.1V37.6c0-1.4-0.4-2.5-1.1-3.4s-1.8-1.3-3.3-1.3c-1.4,0-2.5,0.4-3.2,1.2
	s-1.1,1.8-1.1,3.1v15.6C117.4,52.8,111.3,52.8,111.3,52.8z M152.7,52.8v-2.4h-0.1c-0.1,0.1-0.1,0.2-0.2,0.4
	c-0.1,0.1-0.3,0.4-0.7,0.7s-0.8,0.7-1.3,0.9c-0.5,0.3-1.1,0.5-1.9,0.7c-0.8,0.2-1.7,0.3-2.6,0.3c-3,0-5.2-0.7-6.7-2.1
	c-1.5-1.4-2.2-3.2-2.2-5.2c0-2.2,0.6-3.8,1.9-4.9c1.3-1.1,3.5-2.1,6.5-2.8c2.8-0.7,4.6-1.2,5.3-1.6c0.7-0.4,1.1-1,1.1-1.7
	s-0.4-1.4-1.1-1.9c-0.7-0.5-1.8-0.7-3.2-0.7c-1.7,0-2.8,0.4-3.6,1.1c-0.7,0.7-1.3,1.7-1.7,3l-5.1-2.1c0.6-2.1,1.7-3.8,3.5-5.1
	c1.7-1.3,4-2,6.7-2c3,0,5.5,0.8,7.5,2.4c1.9,1.6,2.9,4.1,2.9,7.4v15.7h-5L152.7,52.8z M146.6,42.6c-1.6,0.4-2.6,0.8-3.1,1.3
	s-0.7,1.1-0.7,1.8c0,1.7,1.2,2.5,3.7,2.5c1.8,0,3.2-0.4,4.1-1.1c0.9-0.7,1.4-1.6,1.4-2.6v-4.3h-0.1c-0.1,0.3-0.3,0.4-0.4,0.6
	c-0.1,0.1-0.6,0.4-1.4,0.7C149.2,41.9,148.1,42.2,146.6,42.6z M163.9,24.3v-5.8h6.1v5.8H163.9z M163.9,52.8V27.9h6.1v24.8h-6.1V52.8
	z M176.6,52.8V27.9h5.9v2.4h0.1c0.7-0.9,1.6-1.6,2.8-2.2s2.4-0.9,3.7-0.9c2.7,0,4.9,0.8,6.5,2.5c1.6,1.6,2.3,3.9,2.3,6.8v16.3h-6.1
	V38c0-1.7-0.3-3-1-3.9s-1.8-1.3-3.4-1.3c-1.5,0-2.7,0.4-3.5,1.3c-0.8,0.9-1.3,2-1.3,3.4v15.2h-6V52.8z M204.2,52.8V18.5h6.1v11.8
	h0.1c0.1-0.1,0.1-0.2,0.2-0.4s0.3-0.4,0.7-0.7c0.4-0.3,0.8-0.7,1.3-0.9c0.5-0.3,1-0.5,1.8-0.7c0.7-0.2,1.5-0.3,2.3-0.3
	c3.1,0,5.6,1.2,7.6,3.6s3,5.6,3,9.5c0,4-1,7.2-2.9,9.6c-2,2.4-4.6,3.6-7.8,3.6c-1.3,0-2.6-0.3-3.7-0.8s-1.8-1-2.2-1.5l-0.7-0.8h-0.1
	v2.4L204.2,52.8L204.2,52.8z M210.3,38v4.5c0,1.5,0.5,2.8,1.4,3.8c1,1,2.3,1.6,3.9,1.6c1.8,0,3.2-0.6,4.1-1.9c1-1.3,1.5-3.2,1.5-5.7
	s-0.5-4.4-1.5-5.7s-2.4-1.9-4.1-1.9c-1.7,0-3,0.5-3.9,1.5C210.8,35.3,210.3,36.5,210.3,38z M232.3,52.8V18.5h6.3v34.2h-6.3V52.8z
	 M263.5,50c-2.2,2.3-5,3.5-8.3,3.5c-3.4,0-6.2-1.2-8.3-3.5c-2.2-2.3-3.3-5.5-3.3-9.7c0-4.1,1.1-7.3,3.4-9.6c2.2-2.3,5-3.5,8.2-3.5
	c3.2,0,6,1.2,8.2,3.5s3.4,5.5,3.4,9.6C266.8,44.5,265.7,47.7,263.5,50z M251,46c1,1.3,2.4,2,4.1,2s3.1-0.7,4.1-2s1.5-3.2,1.5-5.6
	s-0.5-4.3-1.5-5.6s-2.4-2-4.1-2c-1.7,0-3.1,0.7-4.1,2s-1.5,3.2-1.5,5.7C249.5,42.8,250,44.7,251,46z M286.6,42.7l5.8,1.5
	c-0.6,3-1.8,5.2-3.7,6.8c-1.9,1.6-4.2,2.4-7.1,2.4c-3.4,0-6.1-1.2-8.3-3.5c-2.2-2.3-3.3-5.5-3.3-9.7c0-4.1,1.1-7.3,3.4-9.6
	c2.2-2.3,5-3.5,8.3-3.5c2.8,0,5.1,0.8,7,2.4s3,3.8,3.5,6.5l-5.7,1.1c-0.6-3-2.2-4.5-4.8-4.5c-1.7,0-3.1,0.6-4.1,1.9
	c-1,1.3-1.5,3.2-1.5,5.7s0.5,4.4,1.5,5.7s2.4,1.9,4.1,1.9C284.4,48,286.1,46.2,286.6,42.7L286.6,42.7z M297.1,52.8V18.6h6.1v19.6
	h0.1l9-10.3h7.6L311,38l9.7,14.8H314l-7.6-11.3h-0.1l-3.1,3.6v7.8L297.1,52.8L297.1,52.8z"/>
</svg>
