<svg xmlns="http://www.w3.org/2000/svg" viewBox="0 0 507.16 125.95"><defs><style>.cls-1{fill:#591223;}.cls-2{fill:#9a1c30;}.cls-3{fill:#d8273a;}</style></defs><g id="Livello_2" data-name="Livello 2"><g id="Livello_1-2" data-name="Livello 1"><g id="g3"><g id="g7"><g id="g9"><polygon id="polygon11" class="cls-1" points="34.77 40.45 44.44 60.49 35.71 72 0.32 55.91 34.77 40.45"/><polygon id="polygon13" class="cls-2" points="46.64 24.79 71.81 36 60.73 58.89 36.13 52.6 0 36 28.59 11.43 46.64 24.79"/><polygon id="polygon15" class="cls-1" points="0 16.38 15.64 12.34 21.25 26.03 0 36 0 16.38"/><polygon id="polygon17" class="cls-3" points="36.12 32.83 0 16.38 36.73 0 71.81 16.33 36.12 32.83"/><polygon id="polygon19" class="cls-3" points="35.71 72 71.89 55.81 71.89 35.93 35.71 52.47 35.71 72"/></g></g></g><g id="text6569"><path id="path9222" class="cls-3" d="M113.74,37.46l-2.32-17.92c-.91-6.65,5.54-8.66,12.69-8.66,7.55,0,15,3.32,18.53,7L141.23,5.24C139,3.32,132.37,0,123.81,0,107,0,97.62,8.16,99.54,21.85c1,8.26,6.95,12.79,14.2,15.61Zm29.1,31.82c7.15-3.22,11-9.86,9.67-19.94-1.51-11.17-9-15.3-19.34-18.22l1.21,12.48c3.53,1.72,5.74,4.23,6.35,7.66ZM123.4,72l-.9-11.17c-9.17-1.41-17-6.45-19.34-10l1.72,14.9C106.89,67.27,112.83,71,123.4,72Z"/><path id="path9224" class="cls-3" d="M200.75,72A33.72,33.72,0,0,0,210,70.79l-.91-10.87a29.61,29.61,0,0,1-8.66,1.31c-11.88,0-25.47-9.77-27.79-25.78s7.45-24.57,19.23-24.57a32.13,32.13,0,0,1,9.87,1.51l-1-11.28A37.28,37.28,0,0,0,191.58,0c-19.33,0-34.24,14.2-31,36.66A40.35,40.35,0,0,0,200.75,72Z"/><path id="path9226" class="cls-3" d="M224.12,72H236.4a2,2,0,0,1-.7-1.41l-4.44-29a44.44,44.44,0,0,0,5.34.4c14.4,0,25.57-7.15,23.66-21.14C258.15,5.84,246.67.1,230.25.1a133.7,133.7,0,0,0-15.81,1.21l.91,10.77a128.08,128.08,0,0,1,15.41-1.3c9.66,0,17,3,18.22,11.37,1,7.15-4.13,9.67-14.1,9.67a105.18,105.18,0,0,1-16.31-1.21L224,71c.1.8.3.9.1,1ZM261,72h13a28.51,28.51,0,0,1-2.22-2.83l-11-15.61-10.48,3Z"/><path id="path9228" class="cls-3" d="M303.46,30.61h13.09L329.9,1.22A4.68,4.68,0,0,1,331.11,0H316.7Zm-13.49,0h13.49L281.67,0H267a3.34,3.34,0,0,1,1.51,1.41ZM303.31,72h12.38a2,2,0,0,1-.7-1.41L312.22,51H300.44l2.87,20.14c0,.7.3.81,0,.91Z"/><path id="path9230" class="cls-3" d="M349.38,72h12.35a2,2,0,0,1-.7-1.41l-2.68-18.44c1.81.11,4.13.11,5.54.11,13.79,0,26.38-9.47,24-26.69S370.23.1,355.43.1a107.76,107.76,0,0,0-15.31,1.31L341,12.19a127.63,127.63,0,0,1,15.6-.91c8.67,0,18.64,4.83,20,15.51,1.62,11.68-6.54,14.9-19.73,14.9a90,90,0,0,1-11.28-.6l3.72,30C349.48,71.7,349.69,71.91,349.38,72Z"/><path id="path9232" class="cls-3" d="M394.1,11.59c0-.4.2-.2,1-.2H442a2.24,2.24,0,0,1,1.41.61L442,.52c0,.3-.5,0-1,0H394.1c-.81,0-1.41-.31-1.41-.51C392.79.21,394.1,11.59,394.1,11.59ZM421,71.31h12.19a2.59,2.59,0,0,1-.6-1.41l-5.34-40.71H415.45L421,70.31C421,71.11,421.29,71.21,421,71.31Z"/><path id="path9234" class="cls-3" d="M494.5,72h12.66c-.2-.1-.33-.51-.73-1.32l-33-69.37c-.5-.7-.8-1.11-.7-1.31H459a1.47,1.47,0,0,1,.61,1.41L451.3,40.89l11.48.1,5-25.88Z"/></g><path d="M.09,99.27h20.2v2.84H4.93v8.73H19.12v2.8H4.93v11.89H.09Z"/><path d="M80.94,112.12c0,9-7.85,13.83-17.42,13.83-9.9,0-16.86-5.37-16.86-13.32,0-8.34,7.4-13.79,17.42-13.79C74.32,98.84,80.94,104.33,80.94,112.12Zm-29.1.43c0,5.61,4.34,10.64,12,10.64s12-5,12-10.91c0-5.22-3.89-10.67-12-10.67S51.84,106.79,51.84,112.55Z"/><path d="M113.77,99.27v15.54c0,5.89,3.73,8.38,8.74,8.38,5.56,0,9.12-2.57,9.12-8.38V99.27h4.9v15.31c0,8.06-6.07,11.37-14.19,11.37-7.68,0-13.47-3.07-13.47-11.21V99.27Z"/><path d="M166.63,125.53V99.27h5.29l12,13.28a73,73,0,0,1,6.73,8.53l.11,0a82.93,82.93,0,0,1-.55-10.79v-11h4.56v26.26h-4.9L178,112.2a83.19,83.19,0,0,1-7-8.76l-.16,0c.27,3.31.39,6.46.39,10.83v11.22Z"/><path d="M225,99.62a99,99,0,0,1,10.29-.54c7,0,11.91,1.12,15.2,3.27a10.62,10.62,0,0,1,5.28,9.42,11.91,11.91,0,0,1-5.4,10.21c-3.5,2.46-9.29,3.78-16.58,3.78-3.45,0-6.34-.12-8.79-.31Zm4.84,23.22a45,45,0,0,0,4.9.19c10.35,0,16-4,16-11.14.05-6.19-4.95-10.13-15.19-10.13a39.7,39.7,0,0,0-5.68.35Z"/><path d="M289,117.27l-3.9,8.26h-5l12.75-26.26h5.84l12.8,26.26H306.3l-4-8.26Zm12.29-2.65-3.67-7.56a49.92,49.92,0,0,1-1.95-4.79h-.11c-.55,1.56-1.17,3.15-1.89,4.75l-3.67,7.6Z"/><path d="M341.53,102.15H330.12V99.27h27.77v2.88H346.42v23.38h-4.89Z"/><path d="M388.6,99.27v26.26h-4.84V99.27Z"/><path d="M450.82,112.12c0,9-7.85,13.83-17.42,13.83-9.91,0-16.86-5.37-16.86-13.32,0-8.34,7.4-13.79,17.41-13.79C444.19,98.84,450.82,104.33,450.82,112.12Zm-29.11.43c0,5.61,4.34,10.64,12,10.64s12-5,12-10.91c0-5.22-3.9-10.67-12-10.67S421.71,106.79,421.71,112.55Z"/><path d="M478.8,125.53V99.27h5.29l12,13.28a73,73,0,0,1,6.73,8.53l.12,0a81.13,81.13,0,0,1-.56-10.79v-11H507v26.26h-4.9l-11.9-13.33a82.07,82.07,0,0,1-7-8.76l-.16,0c.28,3.31.39,6.46.39,10.83v11.22Z"/></g></g></svg>