<?xml version="1.0" encoding="utf-8"?>
<!-- Generator: Adobe Illustrator 25.0.1, SVG Export Plug-In . SVG Version: 6.00 Build 0)  -->
<svg version="1.1" id="Capa_1" xmlns="http://www.w3.org/2000/svg" xmlns:xlink="http://www.w3.org/1999/xlink" x="0px" y="0px"
	 viewBox="0 0 800.1 800" style="enable-background:new 0 0 800.1 800;" xml:space="preserve">
<style type="text/css">
	.st0{fill:url(#SVGID_1_);}
</style>
<linearGradient id="SVGID_1_" gradientUnits="userSpaceOnUse" x1="10.5742" y1="4.373" x2="541.0326" y2="543.2782">
	<stop  offset="0" style="stop-color:#E4585D"/>
	<stop  offset="1" style="stop-color:#BA3E50"/>
</linearGradient>
<path class="st0" d="M638.4,0H161.6C72.3,0,0,72.3,0,161.6v476.9C0,727.7,72.3,800,161.6,800h476.9c89.2,0,161.6-72.3,161.6-161.6
	V161.6C800,72.3,727.7,0,638.4,0z M603,232.2c-7.6,2.7-15.4,5.3-23.6,7.7c-22.3,6.6-45.1,11.7-68.1,15.3
	c-7-28.6-17.7-56.3-31.9-82.1c-5.8-10.7-12.7-20.8-20.5-30.1C515.4,156.2,566.1,187.5,603,232.2z M411.4,135.8l1.6,0.8
	c13.7,5.6,25.5,14.9,34,27c20,28.7,34.2,61,41.7,95.1c-25.7,3.1-51.5,4.9-77.4,5.2V135.8z M386.7,136.6l2-0.8v128.1
	c-25.9-0.4-51.7-2.2-77.4-5.3c7.6-34.1,21.8-66.3,41.7-94.9C361.5,151.6,373.1,142.2,386.7,136.6z M295,388.7
	c0.4-36.2,4.2-72.2,11.2-107.6c27.4,3.4,54.9,5.2,82.5,5.6v102.1H295z M388.7,411.3v102.1c-27.6,0.4-55.1,2.3-82.5,5.7
	c-7-35.5-10.8-71.6-11.2-107.8H388.7z M341.2,143.4c-7.8,9.2-14.7,19.2-20.5,29.7c-14.2,25.9-24.9,53.5-31.9,82.1
	c-23-3.5-45.7-8.5-68.1-15c-8.2-2.4-16.1-5-23.6-7.7C234,187.8,284.7,156.5,341.2,143.4z M182.1,251.1c7.6,2.8,15.1,5.4,22.7,7.9
	c25.7,8.2,52.1,14.4,78.7,18.6c-7.1,36.6-10.9,73.8-11.3,111.1H136.7C138.6,339.4,154.4,291.7,182.1,251.1z M136.3,411.3h136.1
	c0.4,37.3,4.2,74.5,11.3,111.1c-26.7,4.2-53.1,10.4-78.8,18.6c-7.6,2.5-15.1,5.1-22.7,7.9C154.3,508.3,138.4,460.6,136.3,411.3z
	 M197.1,567.8c7.6-2.7,15.4-5.3,23.6-7.7c22.3-6.6,45.1-11.7,68.1-15.3c7,28.6,17.7,56.3,31.9,82.1c5.8,10.7,12.7,20.8,20.5,30.1
	C284.7,643.8,234,612.5,197.1,567.8z M389.2,664.2l-2-0.8c-13.7-5.6-25.5-14.9-34-27c-19.8-28.7-33.8-61-41.3-95.1
	c25.7-3.1,51.5-4.9,77.4-5.2V664.2z M411.4,286.6c27.6-0.4,55.1-2.3,82.5-5.7c7,35.5,10.8,71.6,11.2,107.8h-93.7V286.6z
	 M505.1,411.3c-0.4,36.2-4.2,72.2-11.2,107.6c-27.4-3.4-54.9-5.2-82.5-5.6V411.3H505.1z M413.4,663.4l-2,0.8V536.1
	c26,0.4,52,2.1,77.8,5.3c-7.6,34.1-21.8,66.3-41.7,94.9C438.9,648.5,427.1,657.8,413.4,663.4z M458.9,656.6
	c7.8-9.2,14.7-19.2,20.5-29.7c14.2-25.9,24.9-53.5,31.9-82.1c23,3.5,45.7,8.5,68.1,15c8.2,2.4,16.1,5,23.6,7.7
	C566.1,612.2,515.4,643.5,458.9,656.6z M618,548.9c-7.6-2.8-15.1-5.4-22.7-7.9c-25.7-8.2-52.1-14.4-78.7-18.6
	c7.1-36.6,10.9-73.8,11.3-111.1h135.6C661.5,460.6,645.7,508.3,618,548.9z M527.7,388.7c-0.4-37.3-4.2-74.5-11.3-111.1
	c26.7-4.2,53.1-10.4,78.8-18.6c7.6-2.5,15.1-5.1,22.7-7.9c28,40.6,43.9,88.3,45.9,137.6H527.7z"/>
</svg>
