<svg xmlns="http://www.w3.org/2000/svg" xmlns:xlink="http://www.w3.org/1999/xlink" viewBox="0 0 328.87 352.46"><defs><style>.cls-1{fill:url(#Sfumatura_senza_nome_7);}.cls-2{fill:url(#Sfumatura_senza_nome_7-2);}.cls-3{fill:url(#Sfumatura_senza_nome_7-3);}.cls-4{fill:url(#Sfumatura_senza_nome_7-4);}</style><linearGradient id="Sfumatura_senza_nome_7" x1="40.58" y1="101.97" x2="24.72" y2="113.52" gradientUnits="userSpaceOnUse"><stop offset="0" stop-color="#e4585d"/><stop offset="1" stop-color="#ba3e50"/></linearGradient><linearGradient id="Sfumatura_senza_nome_7-2" x1="124.7" y1="41.18" x2="112.62" y2="49.98" xlink:href="#Sfumatura_senza_nome_7"/><linearGradient id="Sfumatura_senza_nome_7-3" x1="64.02" y1="34.97" x2="50.51" y2="44.81" xlink:href="#Sfumatura_senza_nome_7"/><linearGradient id="Sfumatura_senza_nome_7-4" x1="191.3" y1="167.91" x2="111.07" y2="226.34" xlink:href="#Sfumatura_senza_nome_7"/></defs><g id="Livello_2" data-name="Livello 2"><g id="Livello_1-2" data-name="Livello 1"><polygon class="cls-1" points="61.99 105.36 61.99 93.3 19.24 86.25 19.24 148.77 61.99 105.36"/><polygon class="cls-2" points="103.85 70.5 105.76 71.6 151.06 48.4 143.08 43.8 110.59 25.04 103.85 70.5"/><path class="cls-3" d="M62.06,63.43a10.45,10.45,0,0,1,5.23-7.92,11,11,0,0,1,5.36-1.45,10.34,10.34,0,0,1,4.77,1.2l-7-43.92A53.77,53.77,0,0,0,23.36,44Z"/><path class="cls-4" d="M302.2,135.66,182.91,66.79l5,15.47-49.47,8.2,3.16,1.82,139.24,80.4a10.6,10.6,0,0,1,0,18.37L152.94,264.88l-17,9.84-58,33.49A10.6,10.6,0,0,1,62,299V166L55.7,178.29,19.24,151.9V299a53.23,53.23,0,0,0,80,46.21L134.34,325l48.29-27.88,119.57-69a53.36,53.36,0,0,0,0-92.41Z"/><polygon points="72.07 0 83.07 69.03 97.48 69.03 107.72 0 72.07 0"/><polygon points="0 78.52 69.03 89.9 73.59 75.86 11 44.38 0 78.52"/><polygon points="52.34 171.07 84.21 108.86 72.45 100.52 23.52 150.2 52.34 171.07"/><polygon points="156.65 150.21 107.34 100.52 95.96 108.86 127.82 171.07 156.65 150.21"/><polygon points="168.79 44.38 106.58 76.24 111.13 89.89 179.79 78.52 168.79 44.38"/></g></g></svg>