<svg xmlns="http://www.w3.org/2000/svg" xmlns:xlink="http://www.w3.org/1999/xlink" viewBox="0 0 1832.6 1087.94"><defs><style>.cls-1,.cls-10,.cls-11,.cls-12,.cls-13,.cls-14,.cls-15,.cls-16,.cls-4,.cls-5,.cls-6,.cls-7,.cls-8,.cls-9{fill:none;}.cls-2{clip-path:url(#clip-path);}.cls-3{clip-path:url(#clip-path-2);}.cls-10,.cls-11,.cls-12,.cls-13,.cls-14,.cls-15,.cls-16,.cls-4,.cls-5,.cls-6,.cls-7,.cls-8,.cls-9{stroke:#020305;stroke-linecap:round;stroke-linejoin:round;}.cls-4{stroke-width:0.89px;}.cls-5{stroke-width:1.79px;stroke-dasharray:0 3.57;}.cls-6{stroke-width:1.81px;stroke-dasharray:0 3.62;}.cls-7{stroke-width:1.84px;stroke-dasharray:0 3.67;}.cls-8{stroke-width:1.86px;stroke-dasharray:0 3.72;}.cls-9{stroke-width:1.89px;stroke-dasharray:0 3.77;}.cls-10{stroke-width:1.91px;stroke-dasharray:0 3.82;}.cls-11{stroke-width:1.93px;stroke-dasharray:0 3.87;}.cls-12{stroke-width:1.96px;stroke-dasharray:0 3.92;}.cls-13{stroke-width:1.98px;stroke-dasharray:0 3.97;}.cls-14{stroke-width:2.01px;stroke-dasharray:0 4.02;}.cls-15{stroke-width:2.03px;stroke-dasharray:0 4.07;}.cls-16{stroke-width:2.06px;stroke-dasharray:0 4.12;}.cls-17{fill:#e4585d;}</style><clipPath id="clip-path" transform="translate(400.98 73.18)"><rect class="cls-1" width="1281.72" height="721.57"/></clipPath><clipPath id="clip-path-2" transform="translate(400.98 73.18)"><rect id="SVGID" class="cls-1" x="-1.93" y="-0.16" width="1330.57" height="887.05"/></clipPath></defs><g id="Livello_2" data-name="Livello 2"><g id="Livello_1-2" data-name="Livello 1"><g class="cls-2"><g class="cls-3"><circle class="cls-4" cx="1252.37" cy="443.95" r="72.58" transform="translate(1016.9 1683.53) rotate(-80.9)"/><circle class="cls-4" cx="1252.37" cy="443.95" r="61.28" transform="translate(1016.54 1683.33) rotate(-80.88)"/><circle class="cls-4" cx="1252.37" cy="443.95" r="49.98" transform="translate(326.95 595.82) rotate(-22.91)"/><circle class="cls-4" cx="1252.37" cy="443.95" r="38.69" transform="translate(326.82 593.63) rotate(-22.82)"/><circle class="cls-4" cx="1252.37" cy="443.95" r="27.39" transform="translate(326.7 591.45) rotate(-22.73)"/><circle class="cls-4" cx="1252.37" cy="443.95" r="16.09" transform="translate(934.56 1634.67) rotate(-76.77)"/><path class="cls-4" d="M1257.17,444a4.8,4.8,0,1,1-4.8-4.8A4.8,4.8,0,0,1,1257.17,444Z" transform="translate(400.98 73.18)"/><circle class="cls-4" cx="674.25" cy="73.02" r="72.58"/><circle class="cls-4" cx="674.25" cy="73.02" r="61.28"/><circle class="cls-4" cx="674.25" cy="73.02" r="49.98"/><circle class="cls-4" cx="674.25" cy="73.02" r="38.69"/><circle class="cls-4" cx="674.25" cy="73.02" r="27.39"/><circle class="cls-4" cx="674.25" cy="73.02" r="16.09"/><path class="cls-4" d="M278.07-.16a4.8,4.8,0,0,1-4.8,4.8,4.8,4.8,0,0,1-4.8-4.8,4.8,4.8,0,0,1,4.8-4.8A4.8,4.8,0,0,1,278.07-.16Z" transform="translate(400.98 73.18)"/><path class="cls-5" d="M-201.62,486.53C-168,528-129.58,566.37-83.1,589c63,30.64,146.75,27.83,197.36-29.7,58.27-66.23,91.64-132.08,185.15-140.63,65.93-6,144.25,22.77,180.48,84.16,21.5,36.43,33.36,78.71,51.2,117.49,42.81,93,115.27,115.1,200.23,65.42,40.58-23.73,86.51-51.15,129.32-35.27,56.14,20.82,77.32,106.78,135.71,119,31.9,6.68,63.63-11.62,94.21-24.91,72.81-31.66,103,37.27,169.08,28.54,16.58-2.19,31.59-12.13,47.81-16.71,16.74-4.72,49.57,0,43.76,26.09" transform="translate(400.98 73.18)"/><path class="cls-5" d="M-198.58,507.76c33.45,41.3,72.66,77.47,119.34,97.76,33.46,14.62,72.32,19.9,108.78,13.14,32.17-6,62.59-21.2,86.31-47.48C159.42,522.83,190,474.27,241,448.5c16.91-8.57,36.11-14.57,58.72-17.37C365,423,442,447.91,480.24,506.32c22.9,35,36.24,76.57,54.67,115.3q14.16,29.86,31.86,50.66c42.11,49.31,97.77,55.26,165.61,24.45,21.48-9.75,44.24-23.22,67-33.16,29.49-12.89,60.65-17.75,90-7,53,19.6,74.29,99,129.48,111.22,30.1,6.66,60.08-9.34,89-21.07,68.41-27.76,98,35.11,160.13,26.41,15.63-2.19,29.84-11.52,45.13-16.05,15.8-4.69,46.21-.89,41.5,22.19" transform="translate(400.98 73.18)"/><path class="cls-5" d="M-195.54,529c33.25,41.1,73.28,75.1,120.15,93.07,33.47,13,71.85,16.66,107.64,9,31.62-6.83,61.46-22.35,85.19-48,43.35-46.91,74.74-94.45,124.9-120.81,16.72-8.82,35.61-15.18,57.62-18.64,64.63-10.18,140.44,10.77,180.64,66.21,24.31,33.52,39.11,74.43,58.13,113.11,9.58,19.63,20.2,36.64,31.84,50.81,41.26,49.91,94.93,58.23,162.87,34,25.74-9.18,52.41-25.26,79-37.3C846.66,655,883.7,650.08,918,662.62c49.89,18.23,71.28,91.19,123.26,103.44,28.3,6.64,56.53-7.07,83.73-17.22,64-23.88,92.94,32.94,151.18,24.28,14.69-2.2,28.08-10.91,42.46-15.41,14.85-4.66,42.85-1.79,39.23,18.3" transform="translate(400.98 73.18)"/><path class="cls-5" d="M-192.5,550.22c33.05,40.9,73.93,72.63,121,88.37C-38,649.8-.16,652,35,643.38A172,172,0,0,0,119,594.94c43.11-45.47,75.34-92,124.69-119a191.47,191.47,0,0,1,56.5-19.91c64-12.31,138.59,4.77,180.73,57.24,25.74,32,42,72.29,61.59,110.91,9.73,19.37,20.28,36.49,31.82,51,40.31,50.6,92.77,62.33,160.13,43.54,30.2-8.42,60.58-27.29,91-41.43,38.94-18,81.84-22.91,121.16-8.62,46.74,17,68.25,83.4,117,95.67,26.5,6.62,53-4.8,78.49-13.37,59.58-20,87.89,30.77,142.23,22.14,13.74-2.2,26.33-10.29,39.78-14.76,13.91-4.62,39.5-2.68,37,14.41" transform="translate(400.98 73.18)"/><path class="cls-5" d="M-189.47,571.45c32.85,40.7,74.56,70.24,121.79,83.67,33.5,9.53,70.9,10.21,105.35.62a185,185,0,0,0,83-48.92c42.89-44,75.94-89.54,124.48-117.08a201,201,0,0,1,55.39-21.18c63.36-14.48,136.77-1.27,180.81,48.26,27.2,30.58,45,70.1,65.05,108.72,9.93,19.08,20.4,36.3,31.81,51.11,39.44,51.22,91,67.26,157.39,53.1,34.78-7.42,68.75-29.32,103.08-45.57,43.66-20.62,92.42-25.45,136.74-9.41,43.59,15.77,65.23,75.61,110.81,87.89,24.7,6.6,49.41-2.53,73.25-9.52,55.14-16.16,82.84,28.6,133.27,20,12.8-2.2,24.58-9.67,37.11-14.1,13-4.6,36.15-3.59,34.71,10.51" transform="translate(400.98 73.18)"/><path class="cls-5" d="M-186.43,592.68c32.65,40.5,75.18,67.86,122.6,79a200.68,200.68,0,0,0,104.2-3.55,200.79,200.79,0,0,0,81.85-49.39c42.66-42.6,76.55-87.1,124.27-115.22A213,213,0,0,1,300.77,481c62.72-16.69,135-7.31,180.9,39.28,28.67,29.11,47.84,68,68.51,106.54,10.07,18.8,20.51,36.12,31.78,51.26,38.59,51.83,89.29,72.78,154.67,62.64,39.43-6.11,76.92-31.35,115.11-49.7,48.39-23.19,103-28,152.33-10.2,40.43,14.57,62.21,67.81,104.58,80.11,22.9,6.58,45.84-.28,68-5.68,50.66-12.32,77.78,26.44,124.31,17.88,11.85-2.22,22.83-9.07,34.43-13.46,12-4.56,32.79-4.49,32.45,6.62" transform="translate(400.98 73.18)"/><path class="cls-5" d="M-183.39,613.91c32.45,40.3,75.79,65.48,123.41,74.28a205.24,205.24,0,0,0,103.06-7.73,220.49,220.49,0,0,0,80.73-49.87C166.25,589.42,201,546,247.88,517.23a227.44,227.44,0,0,1,53.17-23.72c62.06-18.95,133.23-13.39,181,30.3,30.16,27.61,50.71,65.82,72,104.35,10.22,18.53,20.62,35.93,31.76,51.41,37.74,52.43,87.69,65.12,151.93,72.19,44.07,4.84,85.09-33.39,127.15-53.83,53.11-25.78,113.57-30.5,167.91-11,37.27,13.37,59.19,60,98.36,72.33,21.1,6.56,42.25,2,62.78-1.83,46.17-8.53,72.73,24.28,115.36,15.74,10.9-2.22,21.07-8.45,31.75-12.8,11.09-4.54,29.44-5.4,30.19,2.72" transform="translate(400.98 73.18)"/><path class="cls-5" d="M-180.35,635.14c32.24,40.1,76.41,63.12,124.23,69.58a210.21,210.21,0,0,0,101.91-11.9,245.32,245.32,0,0,0,79.62-50.35c42.21-39.73,77.75-82.19,123.85-111.49a245.4,245.4,0,0,1,52.06-25c61.4-21.24,131.51-19.48,181.06,21.33C514.06,553.4,536,591,557.81,629.47c10.37,18.26,20.75,35.74,31.75,51.55,36.9,53,86.39,73.51,149.19,81.74,48.43,6.35,93.26-35.42,139.19-58,57.83-28.36,124.14-33,183.5-11.79,34.1,12.18,56.17,52.22,92.13,64.54,19.3,6.55,38.66,4.2,57.54,2,41.65-4.78,67.68,22.11,106.41,13.6,10-2.22,19.32-7.83,29.07-12.15,10.14-4.51,26.09-6.3,27.93-1.17" transform="translate(400.98 73.18)"/><path class="cls-5" d="M-177.31,656.37c32,39.9,77,60.77,125,64.88A216,216,0,0,0,48.5,705.18c28.33-12,54.7-29.22,78.5-50.83,42-38.29,78.35-79.73,123.65-109.63a267.11,267.11,0,0,1,50.94-26.26c60.71-23.6,129.8-25.62,181.15,12.35,33.19,24.55,56.37,61.59,78.89,100,10.47,18,20.9,35.52,31.73,51.7C629.53,736,678.1,765,739.81,773.77c52.87,7.49,101.43-37.45,151.22-62.1,62.56-30.94,134.71-35.49,199.1-12.59,30.93,11,53.14,44.43,85.9,56.77,17.5,6.53,35,6.39,52.3,5.88,37.11-1.1,62.63,19.94,97.46,11.46,9-2.22,17.56-7.21,26.39-11.5,9.2-4.47,22.74-7.2,25.67-5.06" transform="translate(400.98 73.18)"/><path class="cls-5" d="M-174.28,677.6c31.84,39.71,77.64,58.51,125.87,60.18,33.49,1.28,68.52-5.93,99.62-20.24,27.78-12.81,53.58-30.37,77.38-51.3,41.76-36.86,79-77.28,123.44-107.77a295.47,295.47,0,0,1,49.83-27.54c60-26,128.11-31.79,181.23,3.38,34.73,23,59.26,59.45,82.36,97.78,10.62,17.73,21,35.33,31.71,51.85,35.32,54.16,82.74,92,143.71,100.83,57.4,8.3,109.6-39.48,163.26-66.23a276.37,276.37,0,0,1,214.68-13.38c27.77,9.83,50.13,36.64,79.68,49,15.7,6.51,31.44,8.54,47.06,9.73,32.57,2.47,57.58,17.77,88.5,9.33,8.07-2.23,15.81-6.61,23.73-10.85a110.75,110.75,0,0,1,23.4-9" transform="translate(400.98 73.18)"/><path class="cls-5" d="M-171.24,698.83C-139.6,738.34-93,755-44.56,754.31c33.5-.38,68-9.16,98.48-24.41,27.23-13.67,52.45-31.51,76.26-51.78,41.53-35.42,79.56-74.83,123.24-105.9a330,330,0,0,1,48.72-28.81c59.25-28.43,126.41-38,181.31-5.61,36.27,21.41,62.13,57.32,85.82,95.59,10.77,17.47,21.12,35.15,31.69,52,34.47,54.78,80,105,141,110.39,62.38,5.49,117.77-41.52,175.3-70.37,72-36.09,155.76-40.24,230.27-14.17,24.58,8.69,47.1,28.84,73.45,41.21A190.19,190.19,0,0,0,1262.77,766c28.07,5.94,52.53,15.61,79.55,7.2,7.12-2.24,14.06-6,21-10.2,7.31-4.41,16-9,21.15-12.85" transform="translate(400.98 73.18)"/><path class="cls-5" d="M-168.2,720.06c53.1,66.4,151.87,61.89,224.82,22.2S187.21,635.89,254.8,586,411,503.2,483.81,541.3c54.81,28.69,87.33,90.17,121,145.55S682.49,798.74,743,806.78c66.68,8.87,125.94-43.55,187.34-74.49,76.73-38.68,166.32-42.75,245.85-15,66.12,23.09,143.94,104.1,211.67,29.62" transform="translate(400.98 73.18)"/><path class="cls-5" d="M-166.11,732.6c59.49,70,166.13,64.89,244.24,19.86,69.75-40.22,125.72-104.56,191.73-152.1,68-49,155.92-75.76,226.86-35.61,53.9,30.79,87.43,90.58,124.07,139.13,36.26,48.06,79.36,95.48,138,99,64.32,3.84,122.42-47.48,183.29-76.57,74.86-35.78,161.12-37.19,238-9.54,64.32,23.22,148.23,107,211.67,28.48" transform="translate(400.98 73.18)"/><path class="cls-5" d="M-164,745.15c65.87,73.57,180.41,68,263.66,17.5,66.66-40.46,120.88-102.72,185.29-147.9,68.41-48,155.75-69,224.71-26.55,53.1,32.69,87.32,90.87,127.17,132.72,38.7,40.65,81,79.08,137.85,78,61.92-1.16,118.88-51.43,179.22-78.65,73-32.92,155.93-31.63,230.09-4.1,62.53,23.35,152.52,109.87,211.67,27.34" transform="translate(400.98 73.18)"/><path class="cls-5" d="M-161.93,757.69C-89.68,834.85,32.82,829,121.15,772.85,184.83,732.36,237.21,672,300,629.15c68.85-47,155.51-62.08,222.57-17.5,52.23,34.72,87,91.08,130.28,126.3,40.87,33.22,82.55,62.73,137.66,57.07,59.49-6.12,115.32-55.4,175.16-80.73,71.08-30.08,150.73-26.08,222.21,1.33,60.73,23.49,156.81,112.76,211.67,26.2" transform="translate(400.98 73.18)"/><path class="cls-5" d="M-159.84,770.24C-81.2,851,49.32,845,142.65,783.05c60.81-40.36,111.27-99,172.4-139.5,69.31-45.95,155.25-55.12,220.42-8.45,51.36,36.78,86.27,91.34,133.4,119.89,42.72,25.88,84.11,46.42,137.46,36.11,57-11,111.76-59.39,171.11-82.8,69.15-27.28,145.52-20.53,214.32,6.76,58.93,23.61,161.1,115.64,211.68,25.05" transform="translate(400.98 73.18)"/><path class="cls-5" d="M-157.75,782.78c85,84.33,223.67,78.39,321.91,10.47,58-40.1,106.49-97.07,166-135.31,69.79-44.88,155-48.13,218.28.61,50.47,38.85,85.3,91.8,136.5,113.47,44.32,18.76,85.67,30.16,137.28,15.16,54.6-15.88,108.17-63.41,167-84.88,67.21-24.51,140.33-15,206.44,12.2,57.14,23.74,165.4,118.52,211.69,23.91" transform="translate(400.98 73.18)"/><path class="cls-5" d="M-155.66,795.33c91.41,87.91,238.3,82.17,341.33,8.12,55.27-39.73,101.74-95.12,159.5-131.11,70.29-43.79,154.69-41.12,216.14,9.66,49.56,41,84.15,92.58,139.61,107.06,45.74,11.93,87.22,14,137.08-5.8,52.16-20.67,104.58-67.46,163-87,65.25-21.78,135.18-9.55,198.56,17.63,55.39,23.76,169.69,121.41,211.69,22.77" transform="translate(400.98 73.18)"/><path class="cls-5" d="M-153.57,807.87c97.79,91.5,253.08,86.16,360.75,5.78,52.61-39.28,97-93.15,153.06-126.92,70.81-42.66,154.36-34.08,214,18.72,48.64,43.07,83,93.77,142.73,100.64,47.13,5.42,88.81-2.2,136.89-26.75,49.74-25.41,101-71.55,158.92-89,63.28-19.09,130-4,190.68,23.07,53.6,23.89,174,124.29,211.7,21.63" transform="translate(400.98 73.18)"/><path class="cls-5" d="M-151.48,820.42c104.18,95.08,268,90.33,380.17,3.42,50-38.75,92.28-91.13,146.61-122.71,71.36-41.49,154-27,211.84,27.77,47.7,45.2,82.05,89.6,145.83,94.23,48.52,3.51,90.44-18.32,136.7-47.71,47.37-30.1,97.35-75.68,154.87-91.11,61.29-16.45,124.73,1.68,182.8,28.49,51.75,24.14,178.27,127.18,211.7,20.49" transform="translate(400.98 73.18)"/><path class="cls-5" d="M-149.39,833C-38.83,931.63,133.78,927.7,250.19,834c47.46-38.17,87.59-89.09,140.17-118.52,71.94-40.26,153.67-19.95,209.7,36.82,46.73,47.36,81,97.17,148.94,87.82,50.32-6.92,92.11-34.39,136.51-68.67,45-34.76,93.71-79.85,150.8-93.18,59.3-13.85,119.54,7.24,174.92,33.93,50,24.26,182.56,130.06,211.7,19.34" transform="translate(400.98 73.18)"/><path class="cls-5" d="M-147.3,845.51c116.94,102.25,298.54,99.37,419-1.27,45-37.56,82.9-87,133.72-114.32C478,690.94,558.6,717.15,613,775.79c45.66,49.61,80.4,99.16,152,81.41,52.19-12.94,93.82-50.46,136.31-89.63,42.76-39.41,90.08-84.08,146.75-95.26,57.31-11.3,114.34,12.79,167,39.36,48.17,24.4,186.86,132.94,211.71,18.21" transform="translate(400.98 73.18)"/><path class="cls-5" d="M-145.21,858.05C-21.88,963.89,169,962.32,293.21,854.44c42.52-36.92,78.23-84.9,127.27-110.12,73.18-37.64,152.87-5.77,205.41,54.92,44.75,51.7,80,101.2,155.17,75,54.25-18.92,95.59-66.51,136.12-110.58s86.45-88.38,142.69-97.33c55.31-8.82,109.14,18.34,159.15,44.79,46.37,24.53,191.15,135.82,211.71,17.06" transform="translate(400.98 73.18)"/><path class="cls-6" d="M-168.37,840.4C-97.12,900.74-.76,928.18,89.15,915.59c68.42-9.57,135-36.71,189.58-74.75,13.12-9.14,25.62-18.92,37.89-28.55C345,790,371.79,767.75,405,755.32a142.49,142.49,0,0,1,30.08-7.73c62.61-8.79,128.49,22.86,176.36,71,12.42,12.41,24.31,24.44,36.31,35.07,33.87,30,69.08,48.55,124.1,28.53,37.75-13.86,69.8-40.63,99.7-70.49,13.46-13.44,26.49-27.5,39.42-41.3,41.45-44.26,87.61-89.15,143.14-101.89a159.79,159.79,0,0,1,45.63-3.35c24.89,1.57,49.38,8.17,73.69,17.3a395.12,395.12,0,0,1,40,18c19.89,10.16,53.74,34.79,88.4,53.16,53,28.07,110.16,43.54,126.57-24" transform="translate(400.98 73.18)"/><path class="cls-7" d="M-191.52,822.74c71.9,60.12,171.92,89.54,262.06,74,69.85-12,137.63-39.56,193.72-69.51,13.35-7.13,26.12-14.51,38.56-21.57,28.51-16.18,54.48-32.09,86.72-39.35a145.35,145.35,0,0,1,29.19-3.64C480.05,761.48,546.34,794,597,838c13.15,11.42,26,22.14,38.76,31.55,35.76,26.28,72.51,41.45,126.9,20.66,38.11-14.57,70.89-41.52,101.59-71.48,13.82-13.48,27.23-27.6,40.52-41.52,42.39-44.44,88.72-90.08,143.6-106.44a175.84,175.84,0,0,1,44.9-7c24.64-.82,49,2.88,73.53,9.86a242.86,242.86,0,0,1,41,16.21c21.32,10.52,54.9,36.26,88.58,55.7,52.1,30.08,109.21,49.19,129.66-14.55" transform="translate(400.98 73.18)"/><path class="cls-8" d="M-214.68,805.08C-142.12,865-38.43,896.32,51.94,877.92,123.2,863.41,192,835.49,249.78,813.65c13.57-5.13,26.56-10.08,39.23-14.57,28.52-10.11,53.78-19.67,85.06-21.75a163.53,163.53,0,0,1,28.29.45c60.09,6.43,126.84,39.73,180.21,79.56,13.92,10.39,27.6,19.84,41.2,28,37.61,22.59,75.92,34.27,129.71,12.81,38.45-15.35,72-42.42,103.49-72.47,14.18-13.54,28-27.7,41.62-41.75,43.31-44.63,89.85-90.89,144.05-111a202,202,0,0,1,44.17-10.63,224,224,0,0,1,73.37,2.42,176.43,176.43,0,0,1,42.09,14.43c22.75,10.89,56,37.76,88.74,58.25,51.25,32.12,108.27,54.84,132.76-5" transform="translate(400.98 73.18)"/><path class="cls-9" d="M-237.84,787.42c73.22,59.66,180.57,92.9,271.18,71.66,72.68-17,142.4-45.38,202-59,13.74-3.15,26.91-5.69,39.9-7.58,28.36-4.13,53-7.28,83.39-4.14a207.73,207.73,0,0,1,27.4,4.53C444.87,807,512.08,841,568.12,876.71a421.28,421.28,0,0,0,43.66,24.47c39.42,18.93,79.31,27.07,132.5,5,38.8-16.13,73.09-43.31,105.39-73.46,14.55-13.58,28.7-27.79,42.72-42,44.24-44.83,91-91.7,144.51-115.55a240.59,240.59,0,0,1,43.43-14.28c24.16-5.66,48.2-7.77,73.22-5,14.76,1.63,29.16,6.17,43.14,12.67,24.18,11.23,57.19,39.27,88.91,60.79,50.38,34.19,107.31,60.49,135.84,4.45" transform="translate(400.98 73.18)"/><path class="cls-10" d="M-261,769.76c73.88,59.44,184.88,94.51,275.73,70.48,74.09-19.59,144.66-48.47,206.1-53.78a277.26,277.26,0,0,1,40.57-.59c28.1,1.67,52.28,5.09,81.73,13.47,8.59,2.45,17.47,5.19,26.51,8.62,57.66,21.9,125.34,56.48,184,88.11A365.5,365.5,0,0,0,599.78,917c41.2,15.31,82.71,19.85,135.31-2.9,39.13-16.93,74.19-44.21,107.28-74.45,14.92-13.63,29.45-27.89,43.82-42.19,45.17-45,92.12-92.47,145-120.1a296.09,296.09,0,0,1,42.7-17.92c23.92-8.1,47.84-13.17,73.06-12.46,15.18.43,29.9,4.44,44.19,10.89,25.61,11.58,58.32,40.8,89.08,63.34,49.5,36.28,106.36,66.15,138.93,13.95" transform="translate(400.98 73.18)"/><path class="cls-11" d="M-284.16,752.1C-209.62,811.31-95,848.18-3.87,821.4,71.62,799.22,143,769.67,206.36,772.86a202.53,202.53,0,0,1,41.23,6.41c27.86,7.26,51.55,17.4,80.07,31.08,8.25,4,16.85,8.08,25.62,12.71,56.41,29.73,124.6,64.81,186,92.38a331.81,331.81,0,0,0,48.55,17.41c43,11.72,86.09,12.61,138.11-10.77,39.46-17.73,75.28-45.1,109.18-75.44,15.28-13.67,30.18-28,44.92-42.41C926.09,759,973.26,711,1025.42,679.58a381.48,381.48,0,0,1,42-21.56c23.68-10.56,47.48-18.6,72.91-19.9,15.59-.8,30.64,2.7,45.22,9.12,27.06,11.9,59.45,42.34,89.26,65.88,48.6,38.39,105.41,71.8,142,23.45" transform="translate(400.98 73.18)"/><path class="cls-12" d="M-307.32,734.44c75.21,59,193.46,97.61,284.84,68.13,76.89-24.81,149.15-55.15,214.36-43.3a173.64,173.64,0,0,1,41.91,13.4c27.72,12.72,50.83,29.68,78.39,48.68,7.93,5.47,16.23,11,24.74,16.8,55.13,37.61,123.88,73.13,187.88,96.65a308.47,308.47,0,0,0,51,13.88c44.72,8.19,89.48,5.36,140.92-18.62,39.78-18.56,76.38-46,111.07-76.43,15.64-13.72,30.92-28.09,46-42.63,47-45.39,94.43-94,145.88-129.21,13.75-9.42,27.58-17.6,41.24-25.2,23.42-13,47.11-24.07,72.75-27.34,16-2,31.4,1,46.27,7.34,28.51,12.23,60.56,43.9,89.42,68.43,47.69,40.53,104.47,77.45,145.12,33" transform="translate(400.98 73.18)"/><path class="cls-13" d="M-330.47,716.78c75.86,58.76,197.73,99.11,289.39,67,78.26-27.46,151.51-58.68,218.49-38.06A167,167,0,0,1,220,766.07c27.72,18.12,50.15,41.95,76.73,66.29,7.61,7,15.6,13.9,23.85,20.88,53.79,45.52,123.16,81.43,189.79,100.93a296.53,296.53,0,0,0,53.45,10.34c46.48,4.7,92.85-1.89,143.71-26.48,40.11-19.38,77.48-46.89,113-77.42,16-13.77,31.66-28.18,47.11-42.85,47.95-45.58,95.6-94.71,146.34-133.76,13.49-10.39,27.07-19.84,40.51-28.84,23.16-15.52,46.73-29.56,72.59-34.78,16.41-3.31,32.15-.78,47.32,5.57,30,12.53,61.65,45.47,89.59,71,46.75,42.68,103.52,83.1,148.2,42.45" transform="translate(400.98 73.18)"/><path class="cls-14" d="M-353.63,699.12c76.52,58.53,202,100.58,293.94,65.77,79.63-30.14,154-62.29,222.62-32.81,14.61,6.27,28.86,15.21,43.25,27.38,27.82,23.55,49.5,54.23,75.06,83.9,7.3,8.47,14.95,16.82,22.95,25,52.42,53.45,122.44,89.71,191.72,105.2a288.38,288.38,0,0,0,55.89,6.81c48.27,1.24,96.22-9.16,146.52-34.33,40.42-20.23,78.58-47.78,114.87-78.41,16.37-13.82,32.4-28.28,48.22-43.08,48.87-45.76,96.78-95.43,146.78-138.31,13.25-11.36,26.56-22.09,39.78-32.49,22.89-18,46.34-35.08,72.44-42.21,16.8-4.59,32.91-2.53,48.37,3.79,31.41,12.84,62.73,47.05,89.76,73.52,45.79,44.86,102.56,88.75,151.29,51.95" transform="translate(400.98 73.18)"/><path class="cls-15" d="M-376.79,681.47c77.18,58.3,206.15,101.85,298.5,64.58,80.92-33,156.54-65.92,226.75-27.57,14.84,8.11,29.39,19.34,43.91,34.38,28,29,48.94,66.46,73.4,101.51,7,10,14.31,19.72,22.06,29.06,51,61.35,121.73,97.86,193.64,109.47a289.84,289.84,0,0,0,58.34,3.27c50.06-2.2,99.54-16.51,149.32-42.19,40.7-21.13,79.67-48.67,116.77-79.4,16.73-13.86,33.13-28.37,49.31-43.29,49.8-46,98-96.1,147.24-142.87q19.53-18.48,39-36.13c22.57-20.52,45.91-40.61,72.29-49.65,17.17-5.89,33.66-4.3,49.4,2,32.89,13.09,63.81,48.63,89.94,76.06,44.8,47,101.61,94.41,154.38,61.44" transform="translate(400.98 73.18)"/><path class="cls-16" d="M-399.95,663.81c77.84,58.07,210.44,103.44,303,63.41,99.65-43.07,191.34-83.8,275.46,19,36.27,44.33,59,104.83,92.91,152.26,62.92,88,161.2,123.8,256.35,113.49S715.27,949.35,798.6,881.56s159.08-151,236.43-230.7c22.31-23,45.47-46.16,72.13-57.1,55.06-22.58,103.52,37.21,140.55,78.86,43.79,49.25,100.67,100.06,157.48,70.94" transform="translate(400.98 73.18)"/><path class="cls-17" d="M1140.36,571.66,1106,606a24.27,24.27,0,1,0,34.33-34.33Z" transform="translate(400.98 73.18)"/><path class="cls-17" d="M1106,606l34.33-34.33A24.27,24.27,0,0,0,1106,606Z" transform="translate(400.98 73.18)"/><path class="cls-17" d="M652,647.19l-34.33,34.33A24.27,24.27,0,1,0,652,647.19Z" transform="translate(400.98 73.18)"/><path class="cls-17" d="M617.67,681.52,652,647.19a24.27,24.27,0,0,0-34.33,34.33Z" transform="translate(400.98 73.18)"/><path class="cls-17" d="M961.41,595l-10.29,10.29A7.28,7.28,0,0,0,961.41,595Z" transform="translate(400.98 73.18)"/><path class="cls-17" d="M951.12,605.32,961.41,595a7.28,7.28,0,1,0-10.29,10.29Z" transform="translate(400.98 73.18)"/><path class="cls-17" d="M889,833.08l-10.29,10.29A7.28,7.28,0,0,0,889,833.08Z" transform="translate(400.98 73.18)"/><path class="cls-17" d="M878.69,843.37,889,833.08a7.28,7.28,0,0,0-10.29,10.29Z" transform="translate(400.98 73.18)"/><path class="cls-17" d="M846,693.47l-5.15,5.14a3.64,3.64,0,0,0,5.15-5.14Z" transform="translate(400.98 73.18)"/><path class="cls-17" d="M840.8,698.61l5.15-5.14a3.64,3.64,0,1,0-5.15,5.14Z" transform="translate(400.98 73.18)"/><path class="cls-17" d="M1018.48,651.59l-5.15,5.15a3.64,3.64,0,0,0,5.15-5.15Z" transform="translate(400.98 73.18)"/><path class="cls-17" d="M1013.33,656.74l5.15-5.15a3.64,3.64,0,1,0-5.15,5.15Z" transform="translate(400.98 73.18)"/><path class="cls-17" d="M734,663.67l-5.14,5.14a3.63,3.63,0,1,0,5.14-5.14Z" transform="translate(400.98 73.18)"/><path class="cls-17" d="M728.9,668.81l5.14-5.14a3.63,3.63,0,0,0-5.14,5.14Z" transform="translate(400.98 73.18)"/><path class="cls-17" d="M1129.32,776.27l-5.14,5.14a3.63,3.63,0,0,0,5.14-5.14Z" transform="translate(400.98 73.18)"/><path class="cls-17" d="M1124.18,781.41l5.14-5.14a3.63,3.63,0,1,0-5.14,5.14Z" transform="translate(400.98 73.18)"/><path class="cls-17" d="M948.34,764.36l-5.14,5.14a3.63,3.63,0,0,0,5.14-5.14Z" transform="translate(400.98 73.18)"/><path class="cls-17" d="M943.2,769.5l5.14-5.14a3.63,3.63,0,0,0-5.14,5.14Z" transform="translate(400.98 73.18)"/><rect x="1465.42" y="98.4" width="258.88" height="2.29"/><rect x="1332.01" y="98.4" width="85.37" height="2.29"/><rect x="1103.89" y="98.4" width="25.4" height="2.29"/><rect x="-98.7" y="745.66" width="258.88" height="2.29" transform="translate(1178.52 789.24) rotate(90)"/><rect x="-11.95" y="525.49" width="85.37" height="2.29" transform="translate(958.35 569.08) rotate(90)"/><rect x="18.04" y="267.39" width="25.4" height="2.29" transform="translate(700.25 310.98) rotate(90)"/></g></g></g></g></svg>