<svg xmlns="http://www.w3.org/2000/svg" width="1830" height="221.366" viewBox="0 0 1830 221.366">
  <path id="Path_631" data-name="Path 631" d="M-76.124,181.166c51.609,0,82.12-28.563,88.936-74.979l-28.239-5.193c-6.816,34.73-24.344,54.205-60.7,54.205-42.845,0-62.645-29.212-62.645-75.628,0-44.143,19.8-74.654,63.294-74.654,33.757,0,52.258,18.826,59.074,52.582l28.239-5.518C4.7,6.215-25.489-21.374-75.15-21.374c-58.425,0-93.48,38.95-93.48,100.945S-135.523,181.166-76.124,181.166ZM107.915,7.838c31.809,0,42.52,10.711,42.52,32.458,0,23.045-15.255,34.081-42.845,34.081H61.824V7.838Zm49.012,169.432h34.406V173.7l-58.1-76.277c30.186-6.816,46.74-26.94,46.74-57.776,0-36.353-21.423-57.127-69.461-57.127H31.962v194.75H61.824V100.02h41.547Zm113.929,0V111.38L344.211-13.909v-3.57H312.727L258.521,86.387h-4.869L199.447-17.479H167.314v3.57l73.68,125.289v65.89ZM424.059,8.163c31.485,0,42.2,11.36,42.2,37.327,0,25.642-12.334,37.327-41.871,37.327H380.889V8.163Zm3.57,99.647c44.143,0,68.162-26.291,68.162-62.645,0-41.547-23.045-62.645-68.812-62.645H351.028v194.75h29.862V107.81ZM493.2,9.786h62.969V177.271h29.862V9.786H649V-17.479H493.2Zm246.683,171.38c62,0,96.4-41.222,96.4-101.595,0-60.7-35.055-100.945-96.4-100.945-61.022,0-96.4,40.248-96.4,100.945C643.477,139.944,677.558,181.166,739.878,181.166Zm0-25.967c-46.091,0-66.864-30.835-66.864-75.952,0-44.143,21.423-74.33,66.864-74.33s66.864,30.186,66.864,74.33C806.742,124.688,785.645,155.2,739.878,155.2ZM900.872-40.2l9.413,59.074h12.334L931.382-40.2ZM839.2,26.989l59.074,9.738,3.9-12.01L848.614-2.224Zm44.793,79.2,27.265-53.232L901.2,45.815l-41.871,42.52Zm89.26-17.852-42.2-42.52-9.738,7.141,27.265,53.232ZM983.64-2.224,930.409,25.041,934.3,36.726l58.75-9.738Zm99.647,10.062c31.809,0,42.52,10.711,42.52,32.458,0,23.045-15.255,34.081-42.845,34.081H1037.2V7.838ZM1132.3,177.271h34.406V173.7l-58.1-76.277c30.186-6.816,46.74-26.94,46.74-57.776,0-36.353-21.422-57.127-69.461-57.127h-78.549v194.75H1037.2V100.02h41.547Zm144.764,0,75.3-194.75h-30.835l-36.678,101.27c-7.79,21.747-16.554,46.415-23.046,67.189h-8.115c-6.167-20.449-14.606-45.766-22.4-67.189l-37-101.27h-31.809l75.628,194.75Zm155.475,3.9c53.232,0,75.3-22.4,75.3-56.8,0-27.265-13.957-47.389-70.434-58.1-42.52-7.79-51.609-18.826-51.609-35.055,0-17.527,12.983-28.239,40.9-28.239,30.186,0,40.9,13.308,46.74,39.275l29.537-5.842c-7.465-34.73-26.94-57.776-74.979-57.776-47.714,0-71.733,21.1-71.733,54.205,0,29.537,17.2,49.337,70.435,58.75,38.95,6.816,51.284,15.9,51.284,34.73,0,18.177-13.633,30.186-44.468,30.186-33.432,0-51.609-15.58-57.127-46.091l-28.239,6.167C1353.34,154.225,1376.711,180.841,1432.539,181.166ZM1505.57,9.786h62.969V177.271H1598.4V9.786h62.969V-17.479h-155.8Z" transform="translate(168.63 40.2)" fill="#1f1f1f"/>
</svg>
